<svg xmlns="http://www.w3.org/2000/svg" width="1100" height="556" viewBox="0 0 1100 556" role="img" aria-labelledby="title desc">
<title id="title">Serialization: pocos</title>
<desc id="desc">Mean time relative to STJ reflection for each payload; lower is better. Whiskers show one standard error. Each bar is labelled with its ratio, mean time, and allocated bytes per operation.</desc>
<rect width="100%" height="100%" fill="#ffffff"/>
<g font-family="Arial, sans-serif" font-size="14" fill="#0f172a">
<text x="20" y="30" font-size="22" font-weight="bold">Serialization: pocos</text>
<text x="20" y="54" >Lower is better | normalized to STJ reflection per payload | whiskers: +/-1 standard error</text>
<text x="740" y="79" font-size="13">Ratio | Mean | Allocated / operation</text>
<line x1="258.00" y1="90" x2="258.00" y2="521" stroke="#e2e8f0"/>
<text x="258.00" y="541" text-anchor="middle" font-size="12">0x</text>
<line x1="342.00" y1="90" x2="342.00" y2="521" stroke="#e2e8f0"/>
<text x="342.00" y="541" text-anchor="middle" font-size="12">0.25x</text>
<line x1="426.00" y1="90" x2="426.00" y2="521" stroke="#e2e8f0"/>
<text x="426.00" y="541" text-anchor="middle" font-size="12">0.5x</text>
<line x1="510.00" y1="90" x2="510.00" y2="521" stroke="#e2e8f0"/>
<text x="510.00" y="541" text-anchor="middle" font-size="12">0.75x</text>
<line x1="594.00" y1="90" x2="594.00" y2="521" stroke="#e2e8f0"/>
<text x="594.00" y="541" text-anchor="middle" font-size="12">1x</text>
<line x1="678.00" y1="90" x2="678.00" y2="521" stroke="#e2e8f0"/>
<text x="678.00" y="541" text-anchor="middle" font-size="12">1.25x</text>
<line x1="594.00" y1="90" x2="594.00" y2="521" stroke="#475569" stroke-dasharray="4 4"/>
<text x="20" y="110" font-weight="bold" font-size="16">Small POCO: 4 properties, parameterized constructor</text>
<text x="246" y="140" text-anchor="end">STJ reflection</text>
<rect x="258" y="124" width="336.00" height="22" fill="#64748b"/>
<path d="M 593.29 135 H 594.71 M 593.29 130 V 140 M 594.71 130 V 140" stroke="#0f172a" fill="none"/>
<text x="740" y="140" >1.00x | 140.79 ns | 312 B</text>
<text x="246" y="172" text-anchor="end">STJ source-gen metadata</text>
<rect x="258" y="156" width="344.97" height="22" fill="#2563eb"/>
<path d="M 602.06 167 H 603.89 M 602.06 162 V 172 M 603.89 162 V 172" stroke="#0f172a" fill="none"/>
<text x="740" y="172" >1.03x | 144.55 ns | 312 B</text>
<text x="246" y="204" text-anchor="end">STJ source-gen fast path</text>
<rect x="258" y="188" width="161.49" height="22" fill="#7c3aed"/>
<path d="M 419.26 199 H 419.72 M 419.26 194 V 204 M 419.72 194 V 204" stroke="#0f172a" fill="none"/>
<text x="740" y="204" >0.48x | 67.67 ns | 0 B</text>
<text x="246" y="236" text-anchor="end">PolyType reflection</text>
<rect x="258" y="220" width="220.10" height="22" fill="#b45309"/>
<path d="M 477.60 231 H 478.60 M 477.60 226 V 236 M 478.60 226 V 236" stroke="#0f172a" fill="none"/>
<text x="740" y="236" >0.66x | 92.23 ns | 0 B</text>
<text x="246" y="268" text-anchor="end">PolyType source-gen</text>
<rect x="258" y="252" width="212.85" height="22" fill="#047857"/>
<path d="M 470.59 263 H 471.10 M 470.59 258 V 268 M 471.10 258 V 268" stroke="#0f172a" fill="none"/>
<text x="740" y="268" >0.63x | 89.19 ns | 0 B</text>
<text x="20" y="330" font-weight="bold" font-size="16">Large POCO: 24 properties, nested objects and collections</text>
<text x="246" y="360" text-anchor="end">STJ reflection</text>
<rect x="258" y="344" width="336.00" height="22" fill="#64748b"/>
<path d="M 587.24 355 H 600.76 M 587.24 350 V 360 M 600.76 350 V 360" stroke="#0f172a" fill="none"/>
<text x="740" y="360" >1.00x | 670.79 ns | 312 B</text>
<text x="246" y="392" text-anchor="end">STJ source-gen metadata</text>
<rect x="258" y="376" width="317.55" height="22" fill="#2563eb"/>
<path d="M 574.85 387 H 576.25 M 574.85 382 V 392 M 576.25 382 V 392" stroke="#0f172a" fill="none"/>
<text x="740" y="392" >0.95x | 633.95 ns | 312 B</text>
<text x="246" y="424" text-anchor="end">STJ source-gen fast path</text>
<rect x="258" y="408" width="251.61" height="22" fill="#7c3aed"/>
<path d="M 508.90 419 H 510.31 M 508.90 414 V 424 M 510.31 414 V 424" stroke="#0f172a" fill="none"/>
<text x="740" y="424" >0.75x | 502.31 ns | 0 B</text>
<text x="246" y="456" text-anchor="end">PolyType reflection</text>
<rect x="258" y="440" width="289.06" height="22" fill="#b45309"/>
<path d="M 545.88 451 H 548.23 M 545.88 446 V 456 M 548.23 446 V 456" stroke="#0f172a" fill="none"/>
<text x="740" y="456" >0.86x | 577.07 ns | 0 B</text>
<text x="246" y="488" text-anchor="end">PolyType source-gen</text>
<rect x="258" y="472" width="287.01" height="22" fill="#047857"/>
<path d="M 544.51 483 H 545.50 M 544.51 478 V 488 M 545.50 478 V 488" stroke="#0f172a" fill="none"/>
<text x="740" y="488" >0.85x | 572.98 ns | 0 B</text>
</g>
</svg>
