<?xml version="1.0" encoding="UTF-8" standalone="no"?>
<!-- Created with Inkscape (http://www.inkscape.org/) -->

<svg
   width="51"
   height="51"
   viewBox="0 0 13.493749 13.493751"
   version="1.1"
   id="svg1"
   xml:space="preserve"
   sodipodi:docname="polytype-logo.svg"
   inkscape:version="1.4 (e7c3feb1, 2024-10-09)"
   xmlns:inkscape="http://www.inkscape.org/namespaces/inkscape"
   xmlns:sodipodi="http://sodipodi.sourceforge.net/DTD/sodipodi-0.dtd"
   xmlns="http://www.w3.org/2000/svg"
   xmlns:svg="http://www.w3.org/2000/svg"><sodipodi:namedview
     id="namedview1"
     pagecolor="#ffffff"
     bordercolor="#000000"
     borderopacity="0.25"
     inkscape:showpageshadow="2"
     inkscape:pageopacity="0.0"
     inkscape:pagecheckerboard="true"
     inkscape:deskcolor="#d1d1d1"
     inkscape:zoom="12.749664"
     inkscape:cx="34.785231"
     inkscape:cy="23.726116"
     inkscape:window-width="1464"
     inkscape:window-height="916"
     inkscape:window-x="55"
     inkscape:window-y="648"
     inkscape:window-maximized="1"
     inkscape:current-layer="svg1" /><defs
     id="defs1" /><g
     id="layer1"
     transform="matrix(0.8817158,0,0,0.8817158,0.85112412,0.85291088)"><path
       id="path2"
       style="fill:#b3b3b3;stroke-width:0.0240076"
       d="M 6.7612288,1.4210596 A 5.1798515,5.1732363 0 0 0 1.5813973,6.5942814 5.1798515,5.1732363 0 0 0 6.7612288,11.767503 5.1798515,5.1732363 0 0 0 11.941101,6.5942814 5.1798515,5.1732363 0 0 0 6.7612288,1.4210596 Z M 2.4835299,4.2642042 c 0.061107,0 0.1057336,0.035248 0.1339366,0.1057562 0.0047,0.0094 0.011774,0.025853 0.021175,0.049355 l 0.592266,1.5582407 H 5.3743281 L 5.9736389,4.4052256 c 0.037605,-0.08931 0.08696,-0.1363209 0.1480664,-0.1410214 0.079909,0 0.1269198,0.04701 0.1410214,0.1410214 0,0.028203 -0.011722,0.070525 -0.035226,0.1269311 l -1.776797,4.639415 c -0.032903,0.089309 -0.082259,0.1363206 -0.1480664,0.1410214 -0.061107,0 -0.105773,-0.035251 -0.1339762,-0.1057566 -0.0047,-0.0094 -0.011774,-0.025851 -0.021175,-0.049352 L 2.3777343,4.5251115 c -0.023503,-0.056406 -0.035226,-0.096384 -0.035226,-0.1198859 0,-0.070508 0.037592,-0.115174 0.1128012,-0.1339762 0.0094,-0.0047 0.018819,-0.00705 0.02822,-0.00705 z m 4.6394149,0.1198859 h 3.9131722 c 0.117514,0 0.180977,0.025831 0.190378,0.077537 0,0.042305 -0.0047,0.082282 -0.01409,0.1198859 l -0.190379,1.226841 c -0.01411,0.098711 -0.04934,0.1527557 -0.105757,0.1621565 -0.05641,0 -0.08462,-0.030559 -0.08462,-0.091665 0,-0.032904 0.0071,-0.077569 0.02118,-0.1339761 0.03761,-0.2444277 0.0564,-0.4324306 0.0564,-0.5640458 0,-0.2726307 -0.09637,-0.4442215 -0.289088,-0.5147295 -0.122214,-0.042304 -0.36899,-0.063446 -0.740332,-0.063446 -0.2538297,0 -0.4018958,0.00469 -0.4442,0.01409 -0.06111,0.014101 -0.1057728,0.065841 -0.1339759,0.1551511 v 0.00705 c -0.0094,0.023502 -0.018778,0.056406 -0.028178,0.098711 l -0.9377973,3.743967 c -0.018802,0.070508 -0.028181,0.1198632 -0.028181,0.1480663 0,0.070508 0.037592,0.1151741 0.1128012,0.1339762 h 0.00705 c 0.032903,0.0094 0.079915,0.016436 0.1410212,0.021135 0.1222139,0.0094 0.2726241,0.01409 0.4512444,0.01409 0.1457163,0 0.2232866,0.014108 0.2326884,0.042311 0.00468,0.0094 0.00707,0.021163 0.00707,0.035265 -0.018803,0.089309 -0.070503,0.13632 -0.1551123,0.1410216 L 8.497875,9.1433508 h -0.00705 l -0.571129,-0.00707 h -0.01409 l -0.5852207,0.00707 h -0.01409 L 6.735168,9.1574815 h -0.00705 c -0.079909,0 -0.1198859,-0.028217 -0.1198859,-0.084621 0,-0.070507 0.02587,-0.1128291 0.077575,-0.1269306 0.032904,-0.0047 0.1057446,-0.00705 0.2185573,-0.00705 0.4183475,0 0.6675077,-0.039938 0.7474169,-0.1198465 0.028203,-0.028203 0.051689,-0.070525 0.070491,-0.126931 0,-0.0094 0.00235,-0.021124 0.00705,-0.035226 v -0.014132 h 0.00705 v -0.00705 c 0,-0.0047 0.00235,-0.016464 0.00705,-0.035265 l 0.944814,-3.765103 c 0.018802,-0.056406 0.028181,-0.1057616 0.028181,-0.1480663 0,-0.042305 -0.02114,-0.068174 -0.063446,-0.077575 -0.028203,-0.0047 -0.07287,-0.00705 -0.1339762,-0.00705 H 8.2440313 c -0.4841551,0 -0.8155739,0.054045 -0.9941943,0.1621567 C 7.151126,4.8212008 7.064178,4.9081886 6.9889693,5.025702 l -0.00705,0.00705 v 0.00705 h -0.00705 c -0.098707,0.1551164 -0.2115247,0.4159997 -0.338439,0.7826413 -0.032904,0.08931 -0.061118,0.1363207 -0.08462,0.1410213 -0.0094,0.0047 -0.021124,0.00705 -0.035226,0.00705 -0.056406,0 -0.08462,-0.02587 -0.08462,-0.077575 0,-0.028203 0.014108,-0.070485 0.042311,-0.1268916 l 0.423023,-1.2409369 c 0.028203,-0.079909 0.061107,-0.1245751 0.098711,-0.1339762 0.023503,-0.0047 0.065825,-0.00705 0.126931,-0.00705 z M 3.3437084,6.2595983 4.3026374,8.7696825 5.2615269,6.2595983 Z" /></g></svg>
